<?xml version="1.0" standalone="no"?>
<!DOCTYPE svg PUBLIC "-//W3C//DTD SVG 20010904//EN"
 "http://www.w3.org/TR/2001/REC-SVG-20010904/DTD/svg10.dtd">
<svg version="1.0" xmlns="http://www.w3.org/2000/svg"
 width="120.000000pt" height="115.000000pt" viewBox="0 0 120.000000 115.000000"
 preserveAspectRatio="xMidYMid meet">

<g transform="translate(0.000000,115.000000) scale(0.100000,-0.100000)"
fill="#e32f45" stroke="none">
<path d="M200 1057 l0 -85 50 -18 50 -18 0 -87 c0 -94 3 -98 68 -99 21 0 22 4
22 78 l0 77 210 0 210 0 0 -77 c0 -74 1 -78 23 -78 64 1 67 5 67 99 l0 87 50
18 50 18 0 85 0 85 -32 -19 c-189 -110 -547 -110 -735 0 l-33 19 0 -85z"/>
<path d="M2 708 l3 -110 68 -25 67 -25 0 -274 0 -274 80 0 80 0 0 256 0 255
58 -8 c74 -10 410 -10 485 0 l57 8 0 -255 0 -256 80 0 80 0 0 274 0 274 68 25
67 25 3 110 3 110 -90 -39 c-53 -23 -140 -51 -213 -66 -107 -23 -146 -27 -298
-27 -152 0 -191 4 -298 27 -73 15 -160 43 -213 66 l-90 39 3 -110z"/>
<path d="M350 385 l0 -25 250 0 250 0 0 25 0 25 -250 0 -250 0 0 -25z"/>
</g>
</svg>
